<?xml version="1.0" encoding="utf-8"?>
<!-- Generator: Adobe Illustrator 18.1.1, SVG Export Plug-In . SVG Version: 6.00 Build 0)  -->
<svg version="1.1" id="Layer_1" xmlns="http://www.w3.org/2000/svg" xmlns:xlink="http://www.w3.org/1999/xlink" x="0px" y="0px"
	 viewBox="0 0 2272 1872" enable-background="new 0 0 2272 1872" xml:space="preserve">
<g>
	<polygon fill-rule="evenodd" clip-rule="evenodd" fill="#9EADDB" points="1514,1.3 2270.9,1.3 2270.9,624.9 1514,624.9 1514,1.3 	
		"/>
	<polygon fill-rule="evenodd" clip-rule="evenodd" fill="#9EADDB" points="0.4,1.3 757.2,1.3 757.2,624.9 0.4,624.9 0.4,1.3 	"/>
	<polygon fill-rule="evenodd" clip-rule="evenodd" fill="#FFFFFF" points="0.4,624.9 757.2,624.9 757.2,1248.4 0.4,1248.4 
		0.4,624.9 	"/>
	<polygon fill-rule="evenodd" clip-rule="evenodd" fill="#FFFFFF" points="757.2,1.3 1514,1.3 1514,624.9 757.2,624.9 757.2,1.3 	
		"/>
	<polygon fill-rule="evenodd" clip-rule="evenodd" fill="#9EADDB" points="757.2,624.9 1514,624.9 1514,1248.4 757.2,1248.4 
		757.2,624.9 	"/>
	<polygon fill-rule="evenodd" clip-rule="evenodd" fill="#FFFFFF" points="1514,624.9 2270.9,624.9 2270.9,1248.4 1514,1248.4 
		1514,624.9 	"/>
	<polygon fill-rule="evenodd" clip-rule="evenodd" fill="#9EADDB" points="0.4,1248.4 757.2,1248.4 757.2,1872 0.4,1872 0.4,1248.4 
			"/>
	<polygon fill-rule="evenodd" clip-rule="evenodd" fill="#FFFFFF" points="757.2,1248.4 1514,1248.4 1514,1872 757.2,1872 
		757.2,1248.4 	"/>
	<polygon fill-rule="evenodd" clip-rule="evenodd" fill="#9EADDB" points="1514,1248.4 2270.9,1248.4 2270.9,1872 1514,1872 
		1514,1248.4 	"/>
	
		<path fill-rule="evenodd" clip-rule="evenodd" fill="#0F364A" stroke="#0F364A" stroke-width="7.9942" stroke-miterlimit="22.9256" d="
		M1739.4,101.5h306c25.8,0,46.8,21.1,46.8,46.8v329.5c0,25.8-21.1,46.8-46.8,46.8h-306c-25.8,0-46.8-21.1-46.8-46.8V148.3
		C1692.6,122.6,1713.7,101.5,1739.4,101.5L1739.4,101.5z"/>
	<path fill-rule="evenodd" clip-rule="evenodd" fill="#70CCBF" d="M1892.5,264.7h-128.8c0-71.1,57.7-128.8,128.8-128.8
		c71.1,0,128.8,57.7,128.8,128.8H1892.5L1892.5,264.7z"/>
	<g>
		<defs>
			<path id="SVGID_1_" d="M1892.5,264.7h-128.8c0-71.1,57.7-128.8,128.8-128.8c71.1,0,128.8,57.7,128.8,128.8H1892.5L1892.5,264.7z"
				/>
		</defs>
		<clipPath id="SVGID_2_">
			<use xlink:href="#SVGID_1_"  overflow="visible"/>
		</clipPath>
		
			<path clip-path="url(#SVGID_2_)" fill-rule="evenodd" clip-rule="evenodd" fill="#F09147" stroke="#0F364A" stroke-width="7.9942" stroke-miterlimit="22.9256" d="
			M1892.5,248.3c12.9,0,23.4,10.5,23.4,23.4c0,12.9-10.5,23.4-23.4,23.4s-23.4-10.5-23.4-23.4C1869,258.8,1879.5,248.3,1892.5,248.3
			L1892.5,248.3z"/>
		<path clip-path="url(#SVGID_2_)" fill="none" stroke="#0F364A" stroke-width="7.9942" stroke-miterlimit="22.9256" d="
			M1892.5,148.3V178 M1950.6,163.9l-14.8,25.7 M1993.2,206.5l-25.7,14.8 M1791.7,206.5l25.7,14.8 M1834.3,163.9l14.8,25.7"/>
	</g>
	<path fill="none" stroke="#0F364A" stroke-width="7.9942" stroke-miterlimit="22.9256" d="M1892.5,264.7h-128.8
		c0-71.1,57.7-128.8,128.8-128.8c71.1,0,128.8,57.7,128.8,128.8H1892.5L1892.5,264.7z"/>
	
		<path fill-rule="evenodd" clip-rule="evenodd" fill="#F09147" stroke="#0F364A" stroke-width="7.9942" stroke-miterlimit="22.9256" d="
		M1038.8,216.3c31.6-10.6,67.5,3.9,96.9,34.9c29.3-30.9,65.3-45.5,96.9-34.9c51.9,17.4,72.3,96.2,45.5,175.9
		c-26.8,79.7-90.5,130.2-142.4,112.8c-51.9,17.4-115.7-33.1-142.4-112.8C966.5,312.4,986.9,233.7,1038.8,216.3L1038.8,216.3z"/>
	<path fill="none" stroke="#0F364A" stroke-width="7.9942" stroke-miterlimit="22.9256" d="M1135.6,251.1c0,0-13.3-88.1,36.7-133.3"
		/>
	
		<path fill-rule="evenodd" clip-rule="evenodd" fill="#70CCBF" stroke="#0F364A" stroke-width="7.9942" stroke-miterlimit="22.9256" d="
		M1059.1,125.6c75.7,11.7,76,76.9,76,76.9S1063,216.3,1059.1,125.6L1059.1,125.6z"/>
	
		<polygon fill-rule="evenodd" clip-rule="evenodd" fill="#F09147" stroke="#0F364A" stroke-width="7.9942" stroke-miterlimit="22.9256" points="
		30.8,296.2 726.8,296.2 726.8,330 30.8,330 30.8,296.2 	"/>
	
		<path fill-rule="evenodd" clip-rule="evenodd" fill="#0F364A" stroke="#0F364A" stroke-width="7.9942" stroke-miterlimit="22.9256" d="
		M175,173.9h-20.4c-25,0-45.5,20.5-45.5,45.5v187.5c0,25,20.5,45.5,45.5,45.5H175c25,0,45.5-20.5,45.5-45.5V219.3
		C220.5,194.3,200,173.9,175,173.9L175,173.9z"/>
	
		<path fill-rule="evenodd" clip-rule="evenodd" fill="#70CCBF" stroke="#0F364A" stroke-width="7.9942" stroke-miterlimit="22.9256" d="
		M109.1,219.3H82.5c-14.6,0-26.6,12-26.6,26.6v134.3c0,14.6,12,26.6,26.6,26.6h26.6V219.3L109.1,219.3z"/>
	
		<path fill-rule="evenodd" clip-rule="evenodd" fill="#0F364A" stroke="#0F364A" stroke-width="7.9942" stroke-miterlimit="22.9256" d="
		M582.6,173.9h20.4c25,0,45.5,20.5,45.5,45.5v187.5c0,25-20.5,45.5-45.5,45.5h-20.4c-25,0-45.5-20.5-45.5-45.5V219.3
		C537.2,194.3,557.6,173.9,582.6,173.9L582.6,173.9z"/>
	
		<path fill-rule="evenodd" clip-rule="evenodd" fill="#70CCBF" stroke="#0F364A" stroke-width="7.9942" stroke-miterlimit="22.9256" d="
		M648.5,219.3h26.6c14.6,0,26.6,12,26.6,26.6v134.3c0,14.6-12,26.6-26.6,26.6h-26.6V219.3L648.5,219.3z"/>
	<g>
		
			<path fill-rule="evenodd" clip-rule="evenodd" fill="#FAFAF5" stroke="#0F364A" stroke-width="7.9942" stroke-miterlimit="22.9256" d="
			M264.8,747.7h228c0,123.8,40.6,181.9,40.6,284.2c0,33.1-3.9,64.7-11,93.7H395.6v-22.3c0-9.2-7.6-16.8-16.8-16.8l0,0
			c-9.2,0-16.8,7.6-16.8,16.8v22.3H235.2c-7.1-29-11-60.6-11-93.7C224.2,929.6,264.8,871.5,264.8,747.7L264.8,747.7z"/>
		
			<polygon fill-rule="evenodd" clip-rule="evenodd" fill="#0F364A" stroke="#0F364A" stroke-width="7.9942" stroke-miterlimit="22.9256" points="
			592.2,819.5 690.2,819.5 690.2,846.1 592.2,846.1 592.2,880.1 558.2,856.5 524.3,832.8 558.2,809.1 592.2,785.5 592.2,819.5 		"/>
		
			<polygon fill-rule="evenodd" clip-rule="evenodd" fill="#0F364A" stroke="#0F364A" stroke-width="7.9942" stroke-miterlimit="22.9256" points="
			165.4,819.5 67.5,819.5 67.5,846.1 165.4,846.1 165.4,880.1 199.4,856.5 233.4,832.8 199.4,809.1 165.4,785.5 165.4,819.5 		"/>
		
			<path fill-rule="evenodd" clip-rule="evenodd" fill="#F09147" stroke="#0F364A" stroke-width="7.9942" stroke-miterlimit="22.9256" d="
			M285.9,1027.2c41.9,0,76.1,34.3,76.1,76.1c0-9.2,7.6-16.8,16.8-16.8c9.2,0,16.8,7.6,16.8,16.8c0-41.9,34.3-76.1,76.1-76.1h61.6
			c-0.5-38.9-6.8-71.4-14.3-103.9c-23.8,25.5-57.6,41.5-95,41.5h-90.6c-37.4,0-71.2-16-95-41.5c-7.5,32.5-13.8,65.1-14.3,103.9
			H285.9L285.9,1027.2z"/>
	</g>
	<g>
		
			<polygon fill-rule="evenodd" clip-rule="evenodd" fill="#70CCBF" stroke="#0F364A" stroke-width="7.9942" stroke-miterlimit="22.9256" points="
			1721.9,1462.3 1749,1435.2 1797.5,1483.6 1770.3,1510.8 1721.9,1462.3 		"/>
		
			<polygon fill-rule="evenodd" clip-rule="evenodd" fill="#F09147" stroke="#0F364A" stroke-width="7.9942" stroke-miterlimit="22.9256" points="
			1679.8,1457.4 1744,1393.1 1778.9,1427.9 1714.6,1492.2 1679.8,1457.4 		"/>
		
			<polygon fill-rule="evenodd" clip-rule="evenodd" fill="#70CCBF" stroke="#0F364A" stroke-width="7.9942" stroke-miterlimit="22.9256" points="
			2063,1462.3 2035.9,1435.2 1987.4,1483.6 2014.6,1510.8 2063,1462.3 		"/>
		
			<polygon fill-rule="evenodd" clip-rule="evenodd" fill="#F09147" stroke="#0F364A" stroke-width="7.9942" stroke-miterlimit="22.9256" points="
			2105.2,1457.4 2040.9,1393.1 2006,1427.9 2070.3,1492.2 2105.2,1457.4 		"/>
		
			<polygon fill-rule="evenodd" clip-rule="evenodd" fill="#70CCBF" stroke="#0F364A" stroke-width="7.9942" stroke-miterlimit="22.9256" points="
			1860.3,1362.8 1924.6,1362.8 1924.6,1466.2 1860.3,1466.2 1860.3,1362.8 		"/>
		
			<path fill-rule="evenodd" clip-rule="evenodd" fill="#0F364A" stroke="#0F364A" stroke-width="7.9942" stroke-miterlimit="22.9256" d="
			M1843.2,1328.6h98.6c9.4,0,17.1,7.7,17.1,17.1v43.5c0,9.4-7.7,17.1-17.1,17.1h-98.6c-9.4,0-17.1-7.7-17.1-17.1v-43.5
			C1826,1336.3,1833.7,1328.6,1843.2,1328.6L1843.2,1328.6z"/>
		
			<path fill-rule="evenodd" clip-rule="evenodd" fill="#0F364A" stroke="#0F364A" stroke-width="7.9942" stroke-miterlimit="22.9256" d="
			M1892.5,1432c99.4,0,179.9,80.6,179.9,179.9s-80.6,179.9-179.9,179.9c-99.4,0-179.9-80.6-179.9-179.9S1793.1,1432,1892.5,1432
			L1892.5,1432z"/>
		
			<path fill-rule="evenodd" clip-rule="evenodd" fill="#70CCBF" stroke="#0F364A" stroke-width="7.9942" stroke-miterlimit="22.9256" d="
			M1892.5,1479.4c73.2,0,132.5,59.3,132.5,132.5c0,73.2-59.3,132.5-132.5,132.5c-73.2,0-132.5-59.3-132.5-132.5
			C1759.9,1538.7,1819.3,1479.4,1892.5,1479.4L1892.5,1479.4z"/>
		
			<path fill-rule="evenodd" clip-rule="evenodd" fill="#F09147" stroke="#0F364A" stroke-width="7.9942" stroke-miterlimit="22.9256" d="
			M1892.5,1611.9V1715c-56.9,0-103.1-46.2-103.1-103.1c0-56.9,46.2-103.1,103.1-103.1c56.9,0,103.1,46.2,103.1,103.1H1892.5
			L1892.5,1611.9z"/>
	</g>
	
		<path fill-rule="evenodd" clip-rule="evenodd" fill="#F09147" stroke="#0F364A" stroke-width="7.9942" stroke-miterlimit="22.9256" d="
		M1800.7,1086.8c-41-23.5-68.1-62.3-69.1-106.4h321.6c-0.9,44.1-28,82.9-69.1,106.4H1800.7L1800.7,1086.8z"/>
	
		<path fill-rule="evenodd" clip-rule="evenodd" fill="#F09147" stroke="#0F364A" stroke-width="7.9942" stroke-miterlimit="22.9256" d="
		M1892.5,786.4c87.9,0,159.3,58,160.8,130.1h-321.6C1733.2,844.5,1804.6,786.4,1892.5,786.4L1892.5,786.4z"/>
	
		<path fill-rule="evenodd" clip-rule="evenodd" fill="#70CCBF" stroke="#0F364A" stroke-width="7.9942" stroke-miterlimit="22.9256" d="
		M1730.7,884.1h323.6c17.7,0,32.2,14.5,32.2,32.2v0c0,17.7-14.5,32.2-32.2,32.2h-323.6c-17.7,0-32.2-14.5-32.2-32.2v0
		C1698.5,898.6,1713,884.1,1730.7,884.1L1730.7,884.1z"/>
	
		<path fill-rule="evenodd" clip-rule="evenodd" fill="#70CCBF" stroke="#0F364A" stroke-width="7.9942" stroke-miterlimit="22.9256" d="
		M1730.7,948.5h323.6c17.7,0,32.2,14.5,32.2,32.2v0c0,17.7-14.5,32.2-32.2,32.2h-323.6c-17.7,0-32.2-14.5-32.2-32.2v0
		C1698.5,962.9,1713,948.5,1730.7,948.5L1730.7,948.5z"/>
	
		<polygon fill-rule="evenodd" clip-rule="evenodd" fill="#FAFAF5" stroke="#0F364A" stroke-width="7.9942" stroke-miterlimit="22.9256" points="
		1898.4,1016.8 1963.4,982.6 2028.4,948.5 1898.4,948.5 1768.3,948.5 1833.3,982.6 1898.4,1016.8 	"/>
	
		<polygon fill-rule="evenodd" clip-rule="evenodd" fill="#0F364A" stroke="#0F364A" stroke-width="7.9942" stroke-miterlimit="22.9256" points="
		2033.8,776.1 2053,795.3 1751.1,1097.2 1731.9,1078 2033.8,776.1 	"/>
	
		<polygon fill-rule="evenodd" clip-rule="evenodd" fill="#0F364A" stroke="#0F364A" stroke-width="7.9942" stroke-miterlimit="22.9256" points="
		1751.1,776.1 1731.9,795.3 2033.8,1097.2 2053,1078 1751.1,776.1 	"/>
	
		<polygon fill-rule="evenodd" clip-rule="evenodd" fill="#70CCBF" stroke="#0F364A" stroke-width="7.9942" stroke-miterlimit="22.9256" points="
		955.3,1412.7 1316,1412.7 1316,1809.3 955.3,1809.3 955.3,1412.7 	"/>
	
		<path fill-rule="evenodd" clip-rule="evenodd" fill="#0F364A" stroke="#0F364A" stroke-width="7.9942" stroke-miterlimit="22.9256" d="
		M1062.3,1359.6H1209c31.8,0,57.8,26,57.8,57.8v57.8h-262.3v-57.8C1004.5,1385.6,1030.5,1359.6,1062.3,1359.6L1062.3,1359.6z"/>
	
		<path fill-rule="evenodd" clip-rule="evenodd" fill="#70CCBF" stroke="#0F364A" stroke-width="7.9942" stroke-miterlimit="22.9256" d="
		M1135.6,1311.2c36.2,0,65.6,29.4,65.6,65.6c0,36.2-29.4,65.6-65.6,65.6c-36.2,0-65.6-29.4-65.6-65.6
		C1070.1,1340.5,1099.4,1311.2,1135.6,1311.2L1135.6,1311.2z"/>
	
		<path fill-rule="evenodd" clip-rule="evenodd" fill="#F09147" stroke="#0F364A" stroke-width="7.9942" stroke-miterlimit="22.9256" d="
		M1135.6,1351.3c14,0,25.4,11.4,25.4,25.4c0,14-11.4,25.4-25.4,25.4c-14,0-25.4-11.4-25.4-25.4
		C1110.2,1362.7,1121.6,1351.3,1135.6,1351.3L1135.6,1351.3z"/>
	
		<polygon fill-rule="evenodd" clip-rule="evenodd" fill="#F09147" stroke="#0F364A" stroke-width="7.9942" stroke-miterlimit="22.9256" points="
		1004.4,1514.2 1061.4,1514.2 1061.4,1571.1 1004.4,1571.1 1004.4,1514.2 	"/>
	
		<line fill="none" stroke="#0F364A" stroke-width="7.9942" stroke-miterlimit="22.9256" x1="1100.6" y1="1542.6" x2="1266.9" y2="1542.6"/>
	
		<polygon fill-rule="evenodd" clip-rule="evenodd" fill="#F09147" stroke="#0F364A" stroke-width="7.9942" stroke-miterlimit="22.9256" points="
		1004.4,1621.1 1061.4,1621.1 1061.4,1678.1 1004.4,1678.1 1004.4,1621.1 	"/>
	
		<line fill="none" stroke="#0F364A" stroke-width="7.9942" stroke-miterlimit="22.9256" x1="1100.6" y1="1649.6" x2="1266.9" y2="1649.6"/>
	
		<polygon fill-rule="evenodd" clip-rule="evenodd" fill="#F09147" stroke="#0F364A" stroke-width="7.9942" stroke-miterlimit="22.9256" points="
		1004.4,1728.1 1061.4,1728.1 1061.4,1785.1 1004.4,1785.1 1004.4,1728.1 	"/>
	
		<line fill="none" stroke="#0F364A" stroke-width="7.9942" stroke-miterlimit="22.9256" x1="1100.6" y1="1756.6" x2="1266.9" y2="1756.6"/>
	
		<polygon fill-rule="evenodd" clip-rule="evenodd" fill="#F09147" stroke="#0F364A" stroke-width="7.9942" stroke-miterlimit="22.9256" points="
		155.5,1376.5 602.1,1376.5 602.1,1744 155.5,1744 155.5,1376.5 	"/>
	
		<polygon fill-rule="evenodd" clip-rule="evenodd" fill="#70CCBF" stroke="#0F364A" stroke-width="7.9942" stroke-miterlimit="22.9256" points="
		302.7,1353.4 458.1,1353.4 474.4,1483 286.4,1483 302.7,1353.4 	"/>
	
		<polygon fill-rule="evenodd" clip-rule="evenodd" fill="#70CCBF" stroke="#0F364A" stroke-width="7.9942" stroke-miterlimit="22.9256" points="
		302.7,1767 458.1,1767 474.4,1637.4 286.4,1637.4 302.7,1767 	"/>
	
		<path fill-rule="evenodd" clip-rule="evenodd" fill="#0F364A" stroke="#0F364A" stroke-width="7.9942" stroke-miterlimit="22.9256" d="
		M328.6,1449h103.6c29.1,0,53,23.8,53,53v116.5c0,29.1-23.8,53-53,53H328.6c-29.1,0-53-23.8-53-53V1502
		C275.7,1472.8,299.5,1449,328.6,1449L328.6,1449z"/>
	
		<path fill-rule="evenodd" clip-rule="evenodd" fill="#F09147" stroke="#0F364A" stroke-width="7.9942" stroke-miterlimit="22.9256" d="
		M501,1532.6L501,1532.6c8.7,0,15.9,7.2,15.9,15.9v23.5c0,8.7-7.2,15.9-15.9,15.9l0,0c-8.7,0-15.9-7.1-15.9-15.9v-23.5
		C485.1,1539.7,492.3,1532.6,501,1532.6L501,1532.6z"/>
	
		<path fill-rule="evenodd" clip-rule="evenodd" fill="#FAFAF5" stroke="#0F364A" stroke-width="7.9942" stroke-miterlimit="22.9256" d="
		M380.4,1518.4c-12.8-12.8-33.8-12.8-46.6,0l0,0c-12.8,12.8-12.8,33.8,0,46.6l46.6,46.6L427,1565c12.8-12.8,12.8-33.8,0-46.6l0,0
		C414.2,1505.6,393.2,1505.6,380.4,1518.4L380.4,1518.4z"/>
	<g>
		<path fill="#0F364A" d="M1154.3,957c-0.7-7.1-1.2-13.2-1.8-19.2c-3.8-38,0.7-75.4,9.4-112.4c0.3-1.4,0.6-2.8,0.9-4.1
			c1.5-6.6,1.1-13.2-4.4-17.4c-5.4-4.1-11.6-1.5-16.5,1.6c-16.7,10.6-33.5,10.5-50.9,2.3c-7.8-3.7-16.1-6.6-24.1-9.9
			c-10.1-4.2-13.1-12.1-7.7-21.5c2.6-4.6,2-6.7-2.7-9.3c-6.9-3.8-8.7-11.5-4.2-18.2c7.7-11.6,15.3-23.2,23.9-34
			c11.5-14.4,30.9-19.6,48.5-13c23.9,9,47.7,18.5,71.3,28.4c14.3,6,25.8,16.2,32.3,30.3c17.7,38.3,35.8,76.6,51.2,115.8
			c8.6,21.8,13.7,45.4,17.6,68.6c3.7,22.4,3.6,45.4,0,68.1c-0.6,3.8,0.4,8.6,2.5,11.8c16.1,24.9-3.4,62.8-35.5,65.1
			c-3,0.2-6.2-0.1-9-1.2c-6.8-2.5-11.3-0.8-16.6,4.5c-24.3,24.5-52.3,42.8-87.2,48.4c-18.7,3-37.1,1.5-54.7-5.7
			c-6.1-2.5-9.3-1.2-13.8,3.2c-32.6,32.1-71.7,40.7-116.3,31.3c-0.1-2.7-0.3-5.2-0.3-7.7c0-53.4,0-106.8-0.1-160.2
			c0-4.9,1.4-8.3,5.2-11.4c21.9-17.7,46.1-25.8,74.2-18.4c1.9,0.5,4.8,0,6.4-1.1c17.6-12.4,37.1-20.6,58.5-21.6
			c12.6-0.6,25.4,3,38.1,4.8C1150,955.2,1151.5,956,1154.3,957z M1286.7,1009.6c0.4-2.2,1.1-5.3,1.4-8.5c3-35.1-2.5-69.2-12-103
			c-13.3-46.9-38.7-88.5-57.3-133.1c-5.2-12.5-16-20.9-28.6-26c-22.6-9.2-45.3-18.3-68-27.1c-14.2-5.5-29-1.8-38.2,9.8
			c-7.8,10-14.8,20.6-21.9,31.1c-0.9,1.3-0.8,4.9-0.1,5.3c6.2,3.2,12.5,7.1,19.2,8.3c2.7,0.5,6.5-5.1,9.8-8c1.2-1.1,2.2-2.9,3.6-3.2
			c2.3-0.6,5.5-1.3,7-0.2c1.9,1.3,3.9,5,3.3,6.9c-2.4,7.7-5.7,15.1-8.8,23c-8.8-3.8-16.4-7.1-24.1-10.4c-0.9,1.6-1.5,2.6-2.1,3.6
			c-4.5,7.7-4.3,8.3,3.9,11.6c7.2,2.9,14.5,5.4,21.5,8.8c14.3,6.9,27.6,6.4,41.5-1.7c5.7-3.3,13.5-5,20-4.3
			c12.3,1.3,18.9,15.4,16.2,30.6c-3.6,19.6-8,39.1-10.1,58.9c-2.6,25.5-3.5,51.2,3,76.4c0.8,3,3.4,5.7,5.6,8
			c5.2,5.5,10.8,10.7,16.9,16.7c-4.5,2.3-7.2,3.6-9.7,4.9c-12.5-15.4-21.6-20.3-40.1-24.8c-31.1-7.6-58.9,0.8-84.1,19.6
			c-1.8,1.4-5.2,2.4-7.2,1.7c-25.5-9.2-47.6-2.1-67.8,13.7c-2.1,1.7-3.5,5.4-3.6,8.3c-0.4,13.2-0.2,26.3-0.2,39.5
			c0,36.5,0,72.9,0.1,109.4c0,3.5-0.7,6.8,4.8,7.5c36.7,5,68.3-5.2,94.8-31c1.1-1,1.8-2.4,2.6-3.5c-6.9-5.7-13.4-11-20.1-16.6
			c2.3-3.2,4.2-5.7,6.1-8.4c2.7,2.3,4.8,4.2,7,6c26.5,22.1,56.4,28.8,89.7,19.9c28.1-7.5,51.2-23.5,71-44.1c7.1-7.4,14-9.8,23.7-6.8
			c12.6,4,22.6-1.4,30.5-10.8c8-9.5,11.8-20.3,6.7-32.7c-4.8-11.6-12.5-18.8-26.3-15c-1-3.6-1.7-6.5-2.7-10.2
			C1271.7,1009.6,1278.8,1009.6,1286.7,1009.6z"/>
		<path fill="#70CCBF" d="M1286.7,1009.6c-7.9,0-14.9,0-22.9,0c1,3.8,1.8,6.6,2.7,10.2c13.9-3.8,21.5,3.3,26.3,15
			c5.1,12.3,1.3,23.1-6.7,32.7c-7.9,9.5-17.9,14.8-30.5,10.8c-9.7-3-16.6-0.7-23.7,6.8c-19.8,20.6-42.9,36.6-71,44.1
			c-33.3,8.9-63.2,2.2-89.7-19.9c-2.2-1.8-4.3-3.7-7-6c-2,2.7-3.8,5.2-6.1,8.4c6.7,5.5,13.2,10.9,20.1,16.6
			c-0.8,1.1-1.5,2.5-2.6,3.5c-26.5,25.9-58.1,36-94.8,31c-5.4-0.7-4.8-4-4.8-7.5c0-36.5,0-72.9-0.1-109.4c0-13.2-0.2-26.4,0.2-39.5
			c0.1-2.8,1.5-6.6,3.6-8.3c20.2-15.9,42.3-22.9,67.8-13.7c2,0.7,5.3-0.3,7.2-1.7c25.2-18.8,53-27.3,84.1-19.6
			c18.5,4.5,27.6,9.4,40.1,24.8c2.6-1.3,5.2-2.6,9.7-4.9c-6.1-6-11.6-11.2-16.9-16.7c-2.2-2.3-4.8-5-5.6-8
			c-6.5-25.2-5.7-50.9-3-76.4c2.1-19.8,6.5-39.3,10.1-58.9c2.8-15.1-3.8-29.3-16.2-30.6c-6.5-0.7-14.4,1-20,4.3
			c-13.9,8.1-27.3,8.6-41.5,1.7c-7-3.4-14.3-5.9-21.5-8.8c-8.2-3.3-8.4-4-3.9-11.6c0.6-1,1.1-2,2.1-3.6c7.7,3.3,15.4,6.6,24.1,10.4
			c3.1-7.9,6.4-15.3,8.8-23c0.6-1.9-1.4-5.5-3.3-6.9c-1.5-1.1-4.8-0.4-7,0.2c-1.4,0.4-2.4,2.2-3.6,3.2c-3.3,2.9-7.1,8.5-9.8,8
			c-6.7-1.2-13-5.1-19.2-8.3c-0.7-0.4-0.8-4,0.1-5.3c7.1-10.5,14.1-21.1,21.9-31.1c9.2-11.7,24-15.3,38.2-9.8
			c22.8,8.8,45.4,17.9,68,27.1c12.6,5.2,23.4,13.6,28.6,26c18.6,44.6,44,86.2,57.3,133.1c9.6,33.7,15,67.8,12,103
			C1287.8,1004.3,1287,1007.4,1286.7,1009.6z M1230.6,972.8c14.2-40.9,5.6-100.8-23-136.5c-2.5,2-4.9,4-7.3,5.9
			c2.4,4.1,4.6,7.4,6.5,10.9c18.7,34.2,25.1,70.3,16.6,108.6C1221.3,970.6,1221.2,970.6,1230.6,972.8z M1028.1,1033.7
			c34.7,36.6,92.4,42.5,132.5,13.7c-1.6-2.5-3.1-5.1-4.8-7.9c-43.5,25.1-83.7,21-121-12.1
			C1032.4,1029.6,1030.3,1031.7,1028.1,1033.7z"/>
		<path fill="#0F364A" d="M1230.6,972.8c-9.4-2.2-9.3-2.2-7.3-11.1c8.6-38.3,2.2-74.4-16.6-108.6c-1.9-3.5-4.1-6.8-6.5-10.9
			c2.4-1.9,4.9-3.9,7.3-5.9C1236.2,872,1244.8,932,1230.6,972.8z"/>
		<path fill="#0F364A" d="M1028.1,1033.7c2.2-2,4.3-4.1,6.6-6.3c37.3,33.1,77.5,37.2,121,12.1c1.7,2.8,3.3,5.4,4.8,7.9
			C1120.6,1076.2,1062.8,1070.3,1028.1,1033.7z"/>
		<path fill="#FFFFFF" d="M976,1122.2c31.2-6.5,76.9-17.3,81.7-25.9c7.4-13.2,32.5,22.6,106.2,3.5c37.8-9.8,37.9-35.1,73.5-40.3
			c35.5-5.1,20.3-32.1,20.3-32.1s3.8-1.3,8.4-9.1c-0.8-3-1.5-5.5-2.3-8.8c2.2,0,4.4,0,6.6,0c2.3-5.7,4.5-13,6.5-22.8
			c7.3-36.7-27.9-157.1-28.1-157.6c-10.1-21.3-20.8-42.4-29.9-64.2c-5.2-12.5-16-20.9-28.6-26c-22.6-9.2-45.3-18.3-68-27.1
			c-14.2-5.5-29-1.8-38.2,9.8c-7.8,10-14.8,20.6-21.9,31.1c-0.9,1.3-0.8,4.9-0.1,5.3c6.2,3.2,12.5,7.1,19.2,8.3
			c2.7,0.5,6.5-5.1,9.8-8c1.2-1.1,2.2-2.9,3.6-3.2c2.3-0.6,5.5-1.3,7-0.2c1.9,1.3,3.9,5,3.3,6.9c-2.4,7.7-5.7,15.1-8.8,23
			c-8.8-3.8-16.4-7.1-24.1-10.4c-0.9,1.6-1.5,2.6-2.1,3.6c-4.5,7.7-4.3,8.3,3.9,11.6c7.2,2.9,14.5,5.4,21.5,8.8
			c14.3,6.9,27.6,6.4,41.5-1.7c5.7-3.3,13.5-5,20-4.3c12.3,1.3,18.9,15.4,16.2,30.6c-3.6,19.6-8,39.1-10.1,58.9
			c-2.6,25.5-3.5,51.2,3,76.4c0.8,3,3.4,5.7,5.6,8c5.2,5.5,10.8,10.7,16.9,16.7c-4.5,2.3-7.2,3.6-9.7,4.9
			c-12.5-15.4-21.6-20.3-40.1-24.8c-31.1-7.6-58.9,0.8-84.1,19.6c-1.8,1.4-5.2,2.4-7.2,1.7c-25.5-9.2-47.6-2.1-67.8,13.7
			c-2.1,1.7-3.5,5.4-3.6,8.3c-0.4,13.2-0.2,26.3-0.2,39.5C976,1071.4,976,1096.8,976,1122.2z M1207.6,836.3
			c28.6,35.7,37.2,95.7,23,136.5c-9.4-2.2-9.3-2.2-7.3-11.1c8.6-38.3,2.2-74.4-16.6-108.6c-1.9-3.5-4.1-6.8-6.5-10.9
			C1202.7,840.3,1205.1,838.3,1207.6,836.3z M1034.8,1027.4c37.3,33.1,77.5,37.2,121,12.1c1.7,2.8,3.3,5.4,4.8,7.9
			c-40.1,28.8-97.8,22.9-132.5-13.7C1030.3,1031.7,1032.4,1029.6,1034.8,1027.4z"/>
	</g>
</g>
</svg>
